<svg xmlns="http://www.w3.org/2000/svg" viewBox="453.886 1552.698 33.578 33.504">
  <defs>
    <style>
      .cls-1 {
        fill: #dddedf;
      }

      .cls-2 {
        fill: none;
        stroke: #fff;
        stroke-width: 3px;
      }
    </style>
  </defs>
  <g id="Group_4" data-name="Group 4" transform="translate(-240.045 1389.882)">
    <path id="Path_2" data-name="Path 2" class="cls-1" d="M14.577,10.911l17.822-.7a2.576,2.576,0,0,1,2.7,2.736L34.437,30.06a3.109,3.109,0,0,1-2.92,2.956l-17.822.7A2.576,2.576,0,0,1,11,30.979l.662-17.111A3.109,3.109,0,0,1,14.577,10.911Z" transform="translate(678.947 177.557) rotate(-40)"/>
    <rect id="Rectangle_4" data-name="Rectangle 4" width="22.86" height="23.749" rx="6" transform="translate(699.615 167.724)"/>
    <g id="Group_1" data-name="Group 1" transform="translate(707.348 175.174)">
      <path id="Path_1" data-name="Path 1" class="cls-2" d="M1,1H4.892A4.062,4.062,0,0,1,8.785,5.213,4.062,4.062,0,0,1,4.892,9.426H1" transform="translate(-1 -1)"/>
    </g>
  </g>
</svg>
